<svg width="25" height="21" fill="none" xmlns="http://www.w3.org/2000/svg"><path d="M25 2.405c-.92.408-1.908.684-2.946.808A5.144 5.144 0 0024.31.375a10.272 10.272 0 01-3.257 1.245 5.13 5.13 0 00-8.74 4.678A14.561 14.561 0 011.74.938a5.105 5.105 0 00-.694 2.58c0 1.779.906 3.349 2.282 4.269a5.108 5.108 0 01-2.323-.642v.064a5.132 5.132 0 004.114 5.03 5.133 5.133 0 01-2.317.088 5.134 5.134 0 004.791 3.562 10.291 10.291 0 01-6.37 2.195c-.413 0-.822-.024-1.223-.071a14.517 14.517 0 007.862 2.304c9.434 0 14.593-7.816 14.593-14.593 0-.223-.004-.444-.014-.664A10.426 10.426 0 0025 2.405z" fill="#55ACEE"/></svg>