<svg width="25" height="25" fill="none" xmlns="http://www.w3.org/2000/svg"><path d="M12.5.83c6.445 0 11.66 5.215 11.66 11.65 0 6.436-5.215 11.66-11.66 11.66S.84 18.927.84 12.49C.84 6.055 6.055.83 12.5.83z" fill="#E74D89"/><path d="M12.5 24.97C5.605 24.97 0 19.376 0 12.49 0 5.596 5.605 0 12.5 0S25 5.596 25 12.48c0 6.885-5.605 12.49-12.5 12.49zm10.537-10.78c-.361-.118-3.3-.987-6.65-.46 1.396 3.829 1.963 6.954 2.07 7.598a10.6 10.6 0 004.58-7.138zm-6.367 8.124c-.156-.937-.781-4.199-2.276-8.085a.18.18 0 01-.068.019c-6.025 2.1-8.183 6.27-8.379 6.66a10.634 10.634 0 006.553 2.246c1.475.01 2.89-.293 4.17-.84zM4.57 19.63c.244-.41 3.174-5.254 8.682-7.041.137-.049.283-.088.42-.127a27.816 27.816 0 00-.87-1.807c-5.331 1.592-10.507 1.524-10.976 1.514 0 .107-.01.215-.01.322A10.67 10.67 0 004.57 19.63zm-2.52-9.317c.48.01 4.874.03 9.874-1.298-1.768-3.145-3.682-5.782-3.955-6.162a10.693 10.693 0 00-5.918 7.46zM10 2.13c.293.39 2.236 3.027 3.984 6.24 3.8-1.426 5.4-3.574 5.596-3.848a10.644 10.644 0 00-7.08-2.685c-.86 0-1.7.107-2.5.293zm10.762 3.623c-.225.303-2.012 2.598-5.957 4.209.244.508.488 1.025.713 1.543.078.186.156.371.234.547 3.555-.45 7.08.273 7.432.342a10.62 10.62 0 00-2.422-6.641z" fill="#B2215A"/></svg>